
        <svg xmlns="http://www.w3.org/2000/svg" xmlns:xlink="http://www.w3.org/1999/xlink" version="1.1" width="3171.4285714285716" 
        height="344.150239905105" viewBox="0 0 3171.4285714285716 344.150239905105">
			
			<g transform="scale(8.571428571428571) translate(10, 10)">
				<defs id="SvgjsDefs2737"><linearGradient id="SvgjsLinearGradient2740"><stop id="SvgjsStop2741" stop-color="#ef4136" offset="0"></stop><stop id="SvgjsStop2742" stop-color="#fbb040" offset="1"></stop></linearGradient></defs><g id="SvgjsG2738" featureKey="8L6ael-0" transform="matrix(1.3469826194048273,0,0,1.3469826194048273,-2.1821126527229393,-6.734911170150044)" fill="url(#SvgjsLinearGradient2740)"><path d="M10.56 5.52 q1.22 0.46 2.2 1.48 q2.1 2.12 2.1 5.41 t-2.1 5.43 q-0.98 1.02 -2.2 1.48 q-1.26 0.52 -2.58 0.52 l-5.66 0 q-0.28 0 -0.49 -0.21 t-0.21 -0.49 l0 -1.44 q0 -0.3 0.21 -0.51 t0.49 -0.21 l5.6 0 q1.78 0 2.89 -1.3 t1.11 -3.26 t-1.11 -3.26 t-2.89 -1.3 l-5.6 0 q-0.28 0 -0.49 -0.21 t-0.21 -0.51 l0 -1.44 q0 -0.28 0.21 -0.49 t0.49 -0.21 l5.66 0 q1.32 0 2.58 0.52 z M36.64 16.96 q0.3 0 0.5 0.21 t0.2 0.51 l0 1.46 q0 0.28 -0.2 0.49 t-0.5 0.21 l-9.88 0 q-0.28 0 -0.49 -0.21 t-0.21 -0.49 l0 -1.46 q0 -0.3 0.21 -0.51 t0.49 -0.21 l9.88 0 z M26.759999999999998 13.86 q-0.28 0 -0.49 -0.21 t-0.21 -0.49 l0 -1.5 q0 -0.28 0.21 -0.49 t0.49 -0.21 l8.98 0 q0.3 0 0.51 0.21 t0.21 0.49 l0 1.5 q0 0.28 -0.21 0.49 t-0.51 0.21 l-8.98 0 z M36.64 5 q0.3 0 0.5 0.21 t0.2 0.49 l0 1.46 q0 0.3 -0.2 0.51 t-0.5 0.21 l-9.88 0 q-0.28 0 -0.49 -0.21 t-0.21 -0.51 l0 -1.46 q0 -0.28 0.21 -0.49 t0.49 -0.21 l9.88 0 z M50.760000000000005 5 q0.28 0 0.49 0.21 t0.21 0.49 l0 13.4 q0 0.28 -0.21 0.49 t-0.49 0.21 l-1.52 0 q-0.28 0 -0.49 -0.21 t-0.21 -0.49 l0 -13.4 q0 -0.28 0.21 -0.49 t0.49 -0.21 l1.52 0 z M58.06 16.94 q0.3 0 0.5 0.21 t0.2 0.49 l0 1.46 q0 0.28 -0.2 0.49 t-0.5 0.21 l-4.66 0 q-0.3 0 -0.5 -0.21 t-0.2 -0.49 l0 -1.46 q0 -0.28 0.2 -0.49 t0.5 -0.21 l4.66 0 z M70.9 5 q0.3 0 0.51 0.21 t0.21 0.51 l0 1.46 q0 0.3 -0.21 0.51 t-0.51 0.21 l-2.06 0 q-0.28 0 -0.49 -0.21 t-0.21 -0.51 l0 -1.46 q0 -0.3 0.21 -0.51 t0.49 -0.21 l2.06 0 z M79.84 5 q0.28 0 0.49 0.21 t0.21 0.51 l0 1.46 q0 0.3 -0.21 0.51 t-0.49 0.21 l-4.02 0 l0 11.36 q0 0.28 -0.21 0.49 t-0.49 0.21 l-1.54 0 q-0.3 0 -0.51 -0.21 t-0.21 -0.49 l0 -13.54 q0 -0.3 0.21 -0.51 t0.51 -0.21 l6.26 0 z M104.38 18.86 q0.14 0.32 -0.07 0.65 t-0.57 0.33 l-13.32 0 q-0.18 0 -0.34 -0.09 t-0.24 -0.23 q-0.22 -0.32 -0.06 -0.66 l0.62 -1.46 q0.08 -0.2 0.26 -0.32 t0.38 -0.12 l9.32 0 l-3.28 -7.84 l-2.68 6.4 q-0.08 0.2 -0.25 0.31 t-0.39 0.11 l-1.68 0 q-0.38 0 -0.6 -0.32 q-0.08 -0.14 -0.1 -0.32 t0.04 -0.34 l4.06 -9.52 q0.08 -0.2 0.25 -0.32 t0.39 -0.12 l1.92 0 q0.22 0 0.39 0.12 t0.25 0.32 z M141.66 5 q0.28 0 0.49 0.21 t0.21 0.49 l0 13.4 q0 0.28 -0.21 0.49 t-0.49 0.21 l-1.52 0 q-0.3 0 -0.5 -0.21 t-0.2 -0.49 l0 -9.04 l-3.7 4.76 q-0.22 0.26 -0.56 0.26 l0 0 q-0.16 0 -0.32 -0.07 t-0.24 -0.21 l-6.56 -8.68 q-0.12 -0.14 -0.14 -0.35 t0.08 -0.38 t0.26 -0.28 t0.36 -0.11 l1.76 0 q0.34 0 0.56 0.28 l4.24 5.6 l4.14 -5.6 q0.22 -0.28 0.58 -0.28 l1.76 0 z M130.14 14.7 q0.28 0 0.49 0.2 t0.21 0.5 l0 3.7 q0 0.28 -0.21 0.49 t-0.49 0.21 l-1.52 0 q-0.28 0 -0.49 -0.21 t-0.21 -0.49 l0 -3.7 q0 -0.3 0.21 -0.5 t0.49 -0.2 l1.52 0 z M164.95999999999998 16.96 q0.3 0 0.5 0.21 t0.2 0.51 l0 1.46 q0 0.28 -0.2 0.49 t-0.5 0.21 l-9.88 0 q-0.28 0 -0.49 -0.21 t-0.21 -0.49 l0 -1.46 q0 -0.3 0.21 -0.51 t0.49 -0.21 l9.88 0 z M155.07999999999998 13.86 q-0.28 0 -0.49 -0.21 t-0.21 -0.49 l0 -1.5 q0 -0.28 0.21 -0.49 t0.49 -0.21 l8.98 0 q0.3 0 0.51 0.21 t0.21 0.49 l0 1.5 q0 0.28 -0.21 0.49 t-0.51 0.21 l-8.98 0 z M164.95999999999998 5 q0.3 0 0.5 0.21 t0.2 0.49 l0 1.46 q0 0.3 -0.2 0.51 t-0.5 0.21 l-9.88 0 q-0.28 0 -0.49 -0.21 t-0.21 -0.51 l0 -1.46 q0 -0.28 0.21 -0.49 t0.49 -0.21 l9.88 0 z M178.27999999999997 5 q0.3 0 0.51 0.21 t0.21 0.51 l0 1.46 q0 0.3 -0.21 0.51 t-0.51 0.21 l-2.06 0 q-0.28 0 -0.49 -0.21 t-0.21 -0.51 l0 -1.46 q0 -0.3 0.21 -0.51 t0.49 -0.21 l2.06 0 z M187.21999999999997 5 q0.28 0 0.49 0.21 t0.21 0.51 l0 1.46 q0 0.3 -0.21 0.51 t-0.49 0.21 l-4.02 0 l0 11.36 q0 0.28 -0.21 0.49 t-0.49 0.21 l-1.54 0 q-0.3 0 -0.51 -0.21 t-0.21 -0.49 l0 -13.54 q0 -0.3 0.21 -0.51 t0.51 -0.21 l6.26 0 z M199.29999999999998 10.12 q-0.28 0 -0.49 -0.21 t-0.21 -0.49 l0 -3.72 q0 -0.28 0.21 -0.49 t0.49 -0.21 l1.52 0 q0.3 0 0.5 0.21 t0.2 0.49 l0 3.72 q0 0.28 -0.2 0.49 t-0.5 0.21 l-1.52 0 z M210.16 5 q0.28 0 0.49 0.21 t0.21 0.49 l0 13.44 q0 0.28 -0.21 0.49 t-0.49 0.21 l-1.52 0 q-0.3 0 -0.5 -0.21 t-0.2 -0.49 l0 -5.28 l-6.42 0 l0 5.28 q0 0.28 -0.2 0.49 t-0.5 0.21 l-1.52 0 q-0.28 0 -0.49 -0.21 t-0.21 -0.49 l0 -7.48 q0 -0.28 0.21 -0.49 t0.49 -0.21 l8.64 0 l0 -5.26 q0 -0.28 0.2 -0.49 t0.5 -0.21 l1.52 0 z M228.67999999999998 5.16 q0.24 0.2 0.24 0.54 l0 1.5 q0 0.26 -0.15 0.45 t-0.41 0.25 q-1.28 0.26 -2.18 1.22 q-1.22 1.28 -1.22 3.33 t1.22 3.35 q0.9 0.94 2.18 1.2 q0.26 0.06 0.41 0.25 t0.15 0.45 l0 1.5 q0 0.32 -0.24 0.54 q-0.22 0.16 -0.46 0.16 l-0.12 0 q-2.32 -0.38 -3.98 -2.1 q-2.08 -2.14 -2.08 -5.33 t2.08 -5.37 q1.62 -1.68 3.98 -2.08 q0.32 -0.06 0.58 0.14 z M234.95999999999998 7.1 q2.08 2.18 2.08 5.37 t-2.08 5.33 q-1.66 1.72 -3.98 2.1 l-0.12 0 q-0.24 0 -0.46 -0.16 q-0.24 -0.22 -0.24 -0.54 l0 -1.5 q0 -0.26 0.15 -0.45 t0.41 -0.25 q1.28 -0.26 2.18 -1.2 q1.22 -1.3 1.22 -3.35 t-1.22 -3.33 q-0.9 -0.96 -2.18 -1.22 q-0.26 -0.06 -0.41 -0.25 t-0.15 -0.45 l0 -1.5 q0 -0.34 0.25 -0.54 t0.57 -0.14 q2.36 0.4 3.98 2.08 z M257.15999999999997 5.52 q1.22 0.46 2.2 1.48 q2.1 2.12 2.1 5.41 t-2.1 5.43 q-0.98 1.02 -2.2 1.48 q-1.26 0.52 -2.58 0.52 l-5.66 0 q-0.28 0 -0.49 -0.21 t-0.21 -0.49 l0 -1.44 q0 -0.3 0.21 -0.51 t0.49 -0.21 l5.6 0 q1.78 0 2.89 -1.3 t1.11 -3.26 t-1.11 -3.26 t-2.89 -1.3 l-5.6 0 q-0.28 0 -0.49 -0.21 t-0.21 -0.51 l0 -1.44 q0 -0.28 0.21 -0.49 t0.49 -0.21 l5.66 0 q1.32 0 2.58 0.52 z"></path></g>
			</g>
		</svg>
	